<?xml version="1.0" encoding="utf-8"?>
<!-- Generator: Adobe Illustrator 23.0.2, SVG Export Plug-In . SVG Version: 6.00 Build 0)  -->
<svg version="1.1" id="Layer_1" xmlns="http://www.w3.org/2000/svg" xmlns:xlink="http://www.w3.org/1999/xlink" x="0px" y="0px"
	 viewBox="0 0 455 455" style="enable-background:new 0 0 455 455;" xml:space="preserve">
<style type="text/css">
	.st0{fill:#FFFFFF;}
</style>
<g>
	<polygon class="st0" points="0,40.2 0,285.4 136.2,162.8 	"/>
	<polygon class="st0" points="372.6,20 22.4,20 197.5,177.6 	"/>
	<path class="st0" d="M292.5,193.1c4.6-6.9,10-13.3,16.2-19.1c19.5-18,44.8-27.9,71.3-27.9c5.1,0,10.1,0.4,15,1.1v-107L258.8,162.8
		L292.5,193.1z"/>
	<path class="st0" d="M380,176.1c-41.4,0-75,33.6-75,75V330c0,24.8,20.2,45,45,45s45-20.2,45-45v-78.9h-30V330c0,8.3-6.7,15-15,15
		s-15-6.7-15-15v-78.9c0-24.8,20.2-45,45-45s45,20.2,45,45V330c0,41.4-33.6,75-75,75s-75-33.6-75-75l0.3-86.4l0.1-1.2
		c0.6-7.1,1.9-14.1,3.9-20.8L236.4,183l-38.9,35l-38.9-35L22.4,305.6H245V330c0,57.9,47.1,105,105,105s105-47.1,105-105v-78.9
		C455,209.8,421.4,176.1,380,176.1z"/>
</g>
</svg>
