<?xml version="1.0" encoding="utf-8"?>
<!-- Generator: Adobe Illustrator 23.0.2, SVG Export Plug-In . SVG Version: 6.00 Build 0)  -->
<svg version="1.1" id="Capa_1" xmlns="http://www.w3.org/2000/svg" xmlns:xlink="http://www.w3.org/1999/xlink" x="0px" y="0px"
	 viewBox="0 0 264 264" style="enable-background:new 0 0 264 264;" xml:space="preserve">
<style type="text/css">
	.st0{fill:#FFFFFF;}
</style>
<g>
	<path class="st0" d="M132,0C89.3,0,54.6,34.7,54.6,77.4c0,11.6,2.5,22.8,7.5,33.2c0.1,0.2,0.2,0.4,0.3,0.7l58.5,113.2
		c2.1,4.2,6.4,6.8,11.1,6.8c4.7,0,9-2.6,11.1-6.8l58.4-113.1c0.1-0.2,0.2-0.4,0.3-0.6c5-10.5,7.5-21.7,7.5-33.3
		C209.4,34.7,174.7,0,132,0z M132,117.9c-22.3,0-40.5-18.2-40.5-40.5c0-22.3,18.2-40.5,40.5-40.5s40.5,18.2,40.5,40.5
		C172.5,99.7,154.3,117.9,132,117.9z"/>
	<path class="st0" d="M161.8,249h-59.6c-4.1,0-7.5,3.4-7.5,7.5s3.4,7.5,7.5,7.5h59.6c4.1,0,7.5-3.4,7.5-7.5S166,249,161.8,249z"/>
</g>
</svg>
